<?xml version="1.0" standalone="no"?>
<!DOCTYPE svg PUBLIC "-//W3C//DTD SVG 20010904//EN"
 "http://www.w3.org/TR/2001/REC-SVG-20010904/DTD/svg10.dtd">
<svg version="1.0" xmlns="http://www.w3.org/2000/svg"
 width="1024.000000pt" height="1024.000000pt" viewBox="0 0 1024.000000 1024.000000"
 preserveAspectRatio="xMidYMid meet">
<metadata>
Created by potrace 1.14, written by Peter Selinger 2001-2017
</metadata>
<g transform="translate(0.000000,1024.000000) scale(0.100000,-0.100000)"
fill="#000000" stroke="none">
<path d="M0 5120 l0 -5120 5120 0 5120 0 0 5120 0 5120 -5120 0 -5120 0 0
-5120z m5955 3070 c261 -11 360 -21 475 -50 221 -56 375 -159 485 -325 214
-321 200 -816 -30 -1123 -90 -120 -221 -204 -383 -245 -80 -20 -108 -21 -337
-19 -245 2 -469 20 -570 45 -41 10 -51 18 -68 50 -33 64 3 106 103 121 100 14
191 95 221 196 28 93 27 719 -1 870 -15 84 -73 192 -128 241 -98 87 -217 122
-417 123 -188 0 -296 -36 -386 -131 -77 -81 -104 -143 -137 -313 -22 -112 -72
-505 -72 -568 0 -81 55 -126 190 -156 93 -20 168 -62 203 -113 37 -54 61 -168
53 -257 -15 -166 -102 -252 -289 -286 -122 -22 -162 -71 -151 -185 23 -245
130 -420 324 -527 183 -103 510 -232 917 -362 413 -133 673 -225 775 -277 163
-82 260 -199 304 -364 9 -33 16 -150 20 -345 l6 -295 -588 -588 c-323 -323
-589 -585 -592 -583 -2 3 1 129 7 280 6 152 11 596 11 988 0 764 -2 801 -51
888 -29 51 -235 193 -399 275 -66 33 -323 134 -610 240 -663 245 -840 315
-937 375 -146 90 -255 222 -301 367 -73 224 -4 343 197 343 31 0 187 -16 346
-35 358 -44 438 -47 485 -19 120 70 118 270 -3 324 -66 30 -139 26 -552 -32
-243 -34 -326 -33 -394 1 -82 43 -116 124 -127 310 -13 224 29 470 110 635 82
167 195 277 385 375 204 105 354 140 648 150 309 12 985 12 1258 1z m-1895
-3277 c178 -36 341 -126 437 -242 66 -80 166 -277 187 -369 35 -153 54 -385
61 -712 18 -900 23 -1031 45 -1114 34 -132 101 -226 195 -271 40 -20 87 -31
189 -43 l137 -17 -58 -56 -58 -55 -295 7 c-162 4 -349 13 -414 19 -484 46
-785 289 -897 721 -21 81 -22 112 -29 769 -8 682 -11 736 -46 874 -41 158
-150 271 -283 292 -23 4 -41 10 -41 15 0 14 150 97 233 129 197 77 428 96 637
53z"/>
</g>
</svg>
